REM DIRINDEX 1\4,1\2\5,1\2\6,1\3\7,1\3\8
REM DIRNAME cjc124,folder01,folder02,folder03,folder04,folder05,folder06,folder07
TITLE ""
FILE "022_Day11_Check3_Sentences.mp3" MP3
  TRACK 01 AUDIO
    TITLE "0:"
    INDEX 01 00:00:00
  TRACK 02 AUDIO
    TITLE "4:cjc124_0694"
    INDEX 01 00:00:25
  TRACK 03 AUDIO
    TITLE "0:"
    INDEX 01 00:01:52
  TRACK 04 AUDIO
    TITLE "7:cjc124_0695"
    INDEX 01 00:02:24
  TRACK 05 AUDIO
    TITLE "0:"
    INDEX 01 00:05:34
  TRACK 06 AUDIO
    TITLE "8:cjc124_0696"
    INDEX 01 00:05:50
  TRACK 07 AUDIO
    TITLE "0:"
    INDEX 01 00:08:72
  TRACK 08 AUDIO
    TITLE "7:cjc124_0697"
    INDEX 01 00:09:42
  TRACK 09 AUDIO
    TITLE "0:"
    INDEX 01 00:11:50
  TRACK 10 AUDIO
    TITLE "8:cjc124_0698"
    INDEX 01 00:11:66
  TRACK 11 AUDIO
    TITLE "0:"
    INDEX 01 00:14:25
  TRACK 12 AUDIO
    TITLE "7:cjc124_0699"
    INDEX 01 00:14:64
  TRACK 13 AUDIO
    TITLE "0:"
    INDEX 01 00:17:23
  TRACK 14 AUDIO
    TITLE "8:cjc124_0700"
    INDEX 01 00:17:39
  TRACK 15 AUDIO
    TITLE "0:"
    INDEX 01 00:20:22
  TRACK 16 AUDIO
    TITLE "7:cjc124_0701"
    INDEX 01 00:20:63
  TRACK 17 AUDIO
    TITLE "0:"
    INDEX 01 00:23:16
  TRACK 18 AUDIO
    TITLE "8:cjc124_0702"
    INDEX 01 00:23:34
  TRACK 19 AUDIO
    TITLE "0:"
    INDEX 01 00:25:60
  TRACK 20 AUDIO
    TITLE "7:cjc124_0703"
    INDEX 01 00:26:20
  TRACK 21 AUDIO
    TITLE "0:"
    INDEX 01 00:29:21
  TRACK 22 AUDIO
    TITLE "8:cjc124_0704"
    INDEX 01 00:29:38
  TRACK 23 AUDIO
    TITLE "0:"
    INDEX 01 00:32:43
  TRACK 24 AUDIO
    TITLE "7:cjc124_0705"
    INDEX 01 00:33:07
  TRACK 25 AUDIO
    TITLE "0:"
    INDEX 01 00:35:59
  TRACK 26 AUDIO
    TITLE "8:cjc124_0706"
    INDEX 01 00:36:01
  TRACK 27 AUDIO
    TITLE "0:"
    INDEX 01 00:38:49
  TRACK 28 AUDIO
    TITLE "7:cjc124_0707"
    INDEX 01 00:39:09
  TRACK 29 AUDIO
    TITLE "0:"
    INDEX 01 00:41:57
  TRACK 30 AUDIO
    TITLE "8:cjc124_0708"
    INDEX 01 00:42:00
  TRACK 31 AUDIO
    TITLE "0:"
    INDEX 01 00:44:34
  TRACK 32 AUDIO
    TITLE "7:cjc124_0709"
    INDEX 01 00:44:71
  TRACK 33 AUDIO
    TITLE "0:"
    INDEX 01 00:47:68
  TRACK 34 AUDIO
    TITLE "8:cjc124_0710"
    INDEX 01 00:48:22
  TRACK 35 AUDIO
    TITLE "0:"
    INDEX 01 00:52:04
  TRACK 36 AUDIO
    TITLE "7:cjc124_0711"
    INDEX 01 00:52:41
  TRACK 37 AUDIO
    TITLE "0:"
    INDEX 01 00:55:32
  TRACK 38 AUDIO
    TITLE "8:cjc124_0712"
    INDEX 01 00:55:46
  TRACK 39 AUDIO
    TITLE "0:"
    INDEX 01 00:58:44
  TRACK 40 AUDIO
    TITLE "7:cjc124_0713"
    INDEX 01 00:59:06
  TRACK 41 AUDIO
    TITLE "0:"
    INDEX 01 01:02:38
  TRACK 42 AUDIO
    TITLE "8:cjc124_0714"
    INDEX 01 01:02:63
  TRACK 43 AUDIO
    TITLE "0:"
    INDEX 01 01:06:14
  TRACK 44 AUDIO
    TITLE "7:cjc124_0715"
    INDEX 01 01:06:51
  TRACK 45 AUDIO
    TITLE "0:"
    INDEX 01 01:12:11
  TRACK 46 AUDIO
    TITLE "8:cjc124_0716"
    INDEX 01 01:12:32
  TRACK 47 AUDIO
    TITLE "0:"
    INDEX 01 01:16:38
  TRACK 48 AUDIO
    TITLE "7:cjc124_0717"
    INDEX 01 01:17:00
  TRACK 49 AUDIO
    TITLE "0:"
    INDEX 01 01:19:54
  TRACK 50 AUDIO
    TITLE "8:cjc124_0718"
    INDEX 01 01:19:70
  TRACK 51 AUDIO
    TITLE "0:"
    INDEX 01 01:22:54
  TRACK 52 AUDIO
    TITLE "7:cjc124_0719"
    INDEX 01 01:23:16
  TRACK 53 AUDIO
    TITLE "0:"
    INDEX 01 01:25:27
  TRACK 54 AUDIO
    TITLE "8:cjc124_0720"
    INDEX 01 01:25:43
  TRACK 55 AUDIO
    TITLE "0:"
    INDEX 01 01:27:20
  TRACK 56 AUDIO
    TITLE "7:cjc124_0721"
    INDEX 01 01:27:61
  TRACK 57 AUDIO
    TITLE "0:"
    INDEX 01 01:31:04
  TRACK 58 AUDIO
    TITLE "8:cjc124_0722"
    INDEX 01 01:31:30
  TRACK 59 AUDIO
    TITLE "0:"
    INDEX 01 01:35:27
  TRACK 60 AUDIO
    TITLE "7:cjc124_0723"
    INDEX 01 01:35:63
  TRACK 61 AUDIO
    TITLE "0:"
    INDEX 01 01:38:28
  TRACK 62 AUDIO
    TITLE "8:cjc124_0724"
    INDEX 01 01:38:43
  TRACK 63 AUDIO
    TITLE "0:"
    INDEX 01 01:41:10
  TRACK 64 AUDIO
    TITLE "7:cjc124_0725"
    INDEX 01 01:41:48
  TRACK 65 AUDIO
    TITLE "0:"
    INDEX 01 01:43:62
  TRACK 66 AUDIO
    TITLE "8:cjc124_0726"
    INDEX 01 01:44:03
  TRACK 67 AUDIO
    TITLE "0:"
    INDEX 01 01:46:37
